<?xml version="1.0" encoding="UTF-8"?>
<svg width="64px" height="64px" viewBox="0 0 64 64" version="1.1" xmlns="http://www.w3.org/2000/svg" xmlns:xlink="http://www.w3.org/1999/xlink">
    <title>measure_data_rate</title>
    <g id="measure_data_rate" stroke="none" stroke-width="1" fill="none" fill-rule="evenodd">
        <path d="M32,8 C43.8736155,8 53.7752182,12.8840957 53.9962271,19.7646659 L54,20 L54,44 C54,51.0042715 44.0085429,56 32,56 C19.9914571,56 10,51.0042715 10,44 L10,20 C10,13.0744282 19.7681913,8.11251713 31.5959929,8.00188785 L32,8 Z M50.0007556,43.0350595 C45.9950744,46.1140613 39.3782725,48 32,48 C24.6223381,48 18.0060207,46.1143734 14,43.0358238 L14,44 C14,48.0414235 21.9171529,52 32,52 C42.0828471,52 50,48.0414235 50,44 L50.0007556,43.0350595 Z M50.0007556,35.0350595 C45.9950744,38.1140613 39.3782725,40 32,40 C24.6223381,40 18.0060207,38.1143734 14,35.0358238 L14,36 C14,40.0414235 21.9171529,44 32,44 C42.0828471,44 50,40.0414235 50,36 L50.0007556,35.0350595 Z M50.0007556,27.0350595 C45.9950744,30.1140613 39.3782725,32 32,32 C24.6223381,32 18.0060207,30.1143734 14,27.0358238 L14,28 C14,32.0414235 21.9171529,36 32,36 C42.0828471,36 50,32.0414235 50,28 L50.0007556,27.0350595 Z M32,12 C21.9171529,12 14,15.9585765 14,20 C14,24.0414235 21.9171529,28 32,28 C42.0828471,28 50,24.0414235 50,20 C50,15.9585765 42.0828471,12 32,12 Z M40.5542157,15.175062 C43.8602519,16.2254767 46,17.9177701 46,20 C46,22.1535096 43.7706574,23.9112831 40.2877389,24.9577089 C39.7588109,25.1166227 39.2012049,24.8166669 39.0422911,24.2877389 C38.8833773,23.7588109 39.1833331,23.2012049 39.7122611,23.0422911 C42.4390131,22.2230518 44,20.9922579 44,20 C44,18.9355296 42.407528,17.8401657 39.8755854,17.065434 L39.9717815,16.9571369 L40.0877333,16.8281992 L40.179763,16.6812288 C40.4648619,16.225929 40.5919972,15.6980973 40.5542157,15.175062 Z M32,14 C32.6650704,14 33.3197706,14.0181227 33.960924,14.0535438 C33.0528027,14.524423 31.8561296,15.1539742 30.3476635,15.9537722 L30.12,16.073 L30.1599709,16.0525386 C24.3792968,16.3845945 20,18.2347758 20,20 C20,20.9892678 21.5650099,22.2225693 24.2882844,23.0424552 C24.8171218,23.2016702 25.1167599,23.759447 24.9575448,24.2882844 C24.7983298,24.8171218 24.240553,25.1167599 23.7117156,24.9575448 C20.2324878,23.9100669 18,22.1507615 18,20 C18,16.4254082 24.3060614,14 32,14 Z M38.3469683,14.9448703 C38.4601623,15.0239321 38.5305941,15.1413901 38.552962,15.2673811 C38.5739429,15.3855598 38.5526356,15.5112461 38.4846647,15.6197948 L33.803031,20.8257446 C33.1701669,21.325455 32.4975368,21.5810189 31.8706564,21.6459186 C31.1541441,21.7200976 30.4947341,21.5456841 29.9961774,21.1974607 C29.4435916,20.8115 29.1966991,20.2973974 29.1966991,19.7997732 C29.1966991,19.302149 29.4435916,18.7880464 29.9961774,18.4020856 C30.1658829,18.2835526 30.3538849,18.1853232 30.5541611,18.1083754 C34.3035707,16.1168559 36.3934519,15.0337449 36.8238048,14.8590423 C37.4693341,14.5969885 38.129308,14.7928425 38.3469683,14.9448703 Z" id="Combined-Shape" fill="#000000" fill-rule="nonzero"></path>
    </g>
</svg>